<?xml version="1.0" encoding="UTF-8"?>
<svg xmlns="http://www.w3.org/2000/svg" xmlns:xlink="http://www.w3.org/1999/xlink" viewBox="0 0 362.57 381.14">
  <defs>
    <style>
      .cls-1 {
        fill: none;
      }

      .cls-2 {
        clip-path: url(#clippath);
      }

      .cls-3 {
        fill: #ecb03b;
      }

      .cls-4 {
        fill: #fff;
      }

      .cls-5 {
        fill: #f1f1f1;
      }

      .cls-6 {
        fill: #32387a;
      }

      .cls-7 {
        fill: #bf3535;
      }

      .cls-8 {
        fill: #d3d7ec;
      }

      .cls-9 {
        fill: #db233c;
      }

      .cls-10 {
        fill: #1f2050;
      }

      .cls-11 {
        fill: #15163c;
      }

      .cls-12 {
        fill: #613534;
      }

      .cls-13 {
        fill: #7c5752;
      }

      .cls-14 {
        fill: #606060;
        mix-blend-mode: multiply;
        opacity: .2;
      }

      .cls-15 {
        isolation: isolate;
      }
    </style>
    <clipPath id="clippath">
      <rect class="cls-1" width="362.57" height="381.14"/>
    </clipPath>
  </defs>
  <g class="cls-15">
    <g id="Layer_2" data-name="Layer 2">
      <g id="OBJECTS">
        <g class="cls-2">
          <g>
            <g>
              <g>
                <polygon class="cls-13" points="210.6 339.45 227.06 704.67 260.51 717.52 258.12 727.01 201.56 727.01 132.96 329.93 210.6 339.45"/>
                <polygon class="cls-13" points="100.5 346.9 -15.4 704.67 -48.86 717.52 -46.47 727.01 10.1 727.01 165.41 337.38 100.5 346.9"/>
              </g>
              <path class="cls-9" d="M103.41,325.62L-13.69,632.53l.88,15.91-13.6,14.12s.17,58.33,69.53,10.61l100.14-223.37,35.85,234.41s40.18,18.35,62.91-6.01v-10.84l10.39-15.26-14.93-16.44-10.34-330.3s-77.15,45.37-123.73,20.24Z"/>
              <path class="cls-14" d="M231.06,430.64c-88.02-20.67-129.52-47.13-141.81-69.75l14.15-35.27c46.6,25.13,123.75-20.25,123.75-20.25l3.91,125.27Z"/>
            </g>
            <g>
              <path class="cls-10" d="M93.97,177.76s-45.15,31.68-16.34,82.18c0,0,41.45-30.67,16.34-82.18Z"/>
              <g>
                <g>
                  <path class="cls-7" d="M100.94,33.87c-2.02,.74-4.43,1.51-6.99,2.12-2.27,.53-4.85,.97-7.45,1.07-4.97,.22-10.08-.72-13.64-4.34-.98-.98-2.05-1.81-3.24-2.47l1.05,2.6c1.17,.66,2.26,1.49,3.23,2.49,3.58,3.6,8.69,4.56,13.64,4.34,2.62-.12,5.19-.56,7.46-1.09,2.66-.63,5.16-1.43,7.25-2.23l-1.31-2.49Zm9.3,17.78l-1.2-2.3c-2.32,.92-5.34,1.98-8.63,2.75-2.27,.53-4.85,.97-7.45,1.09-4.97,.22-10.08-.74-13.66-4.34-.97-.98-2.05-1.82-3.23-2.49l1.09,2.7c-.19-.1-.39-.22-.6-.3,1.4,.71,2.68,1.64,3.83,2.79,3.58,3.62,8.69,4.56,13.64,4.34,2.62-.12,5.19-.56,7.46-1.09l.05-.02c3.38-.78,6.48-1.88,8.84-2.84l-.15-.3Zm2.72,5.22c-.16,.06-.3,.09-.44,.15l.44-.17-1.2-2.3-.16-.3c-.12,.05-.26,.09-.37,.13l-1.54,.56-1.81,.65c-.28,.11-.56,.2-.8,.3l-2.22,.8c-.37,.13-.66,.24-.91,.33-.17,.06-.33,.11-.47,.17-.21,.07-.37,.13-.49,.17l-.17,.07s-.04,0-.04,0l-.14,.06s-.03,.02-.05,.02c-2.29,.54-4.85,.97-7.46,1.09-4.97,.22-10.08-.72-13.64-4.34-3.15-3.19-7.36-4.69-12.51-4.47-.21,.02-.4,.03-.61,.05-8.54,.58-16.7,5.69-16.77,5.73l1.07,2.7c.09-.04,8.25-5.15,16.77-5.73,.21-.02,.42-.03,.63-.05,5.14-.22,9.33,1.28,12.5,4.47,3.56,3.62,8.68,4.56,13.64,4.34,2.6-.12,5.17-.55,7.45-1.09l.05-.02c3.66-.86,7.01-2.07,9.39-3.04l-.15-.28Zm-3.72,1.34l1.52-.56c-.56,.2-1.05,.39-1.52,.56Zm6.43,3.87l-1.22-2.35-.15-.26c-.31,.11-.63,.22-.92,.33l-1.55,.56-1.94,.7c-.3,.11-.58,.2-.86,.3l-2.02,.74c-.37,.13-.66,.24-.91,.33-.17,.06-.33,.11-.47,.17-.21,.07-.37,.13-.49,.17l-.17,.07s-.04,0-.04,0l-.14,.06s-.03,.02-.05,.02c-2.27,.53-4.85,.97-7.46,1.09-4.95,.22-10.06-.72-13.64-4.34-3.15-3.19-7.36-4.69-12.51-4.47-.19,.02-.4,.03-.61,.05-8.54,.58-16.69,5.69-16.77,5.73l1.09,2.7c.07-.04,8.23-5.15,16.77-5.73,.21-.02,.4-.03,.61-.05,5.14-.22,9.35,1.28,12.5,4.47,3.56,3.62,8.68,4.56,13.64,4.34,2.62-.12,5.17-.55,7.46-1.09l.05-.02c3.94-.92,7.49-2.25,9.92-3.26l-.13-.26Zm-4.26,1.54l1.52-.56c-.56,.2-1.05,.39-1.52,.56Zm5.73,1.3l-.13-.24c-.52,.2-1.03,.37-1.48,.54l-1.54,.56-1.81,.65c-.28,.11-.56,.2-.8,.3l-2.22,.8c-.37,.13-.66,.24-.91,.33-.17,.06-.33,.11-.47,.17-.21,.07-.37,.13-.49,.17l-.17,.07s-.04,0-.04,0l-.14,.06s-.03,.02-.05,.02c-2.27,.53-4.85,.97-7.45,1.09-4.97,.22-10.08-.72-13.64-4.34-3.17-3.19-7.36-4.69-12.5-4.47-.21,.02-.42,.03-.63,.05-8.53,.58-16.69,5.69-16.77,5.73l1.05,2.62c.07-.05,8.23-5.16,16.77-5.75,.21-.02,.4-.03,.61-.03,5.14-.24,9.35,1.26,12.5,4.45,3.56,3.62,8.69,4.56,13.64,4.34,2.62-.1,5.17-.54,7.46-1.09,4.25-.99,8.07-2.47,10.51-3.5l-1.31-2.51Zm-13.54-25.94c-2.15,.81-4.73,1.65-7.51,2.32-2.29,.54-4.85,.97-7.46,1.09-4.97,.22-10.08-.74-13.64-4.34-.99-1-2.05-1.82-3.23-2.49l1.07,2.7c1.17,.66,2.26,1.49,3.23,2.49,3.58,3.6,8.69,4.56,13.66,4.34,2.6-.12,5.17-.55,7.45-1.09,2.9-.69,5.61-1.58,7.81-2.43l-1.37-2.59Zm2.72,5.2c-2.23,.87-5.06,1.82-8.07,2.52-2.27,.53-4.85,.97-7.46,1.09-4.95,.22-10.06-.74-13.64-4.34-.97-.98-2.05-1.82-3.23-2.49l1.09,2.7c1.17,.66,2.24,1.5,3.23,2.49,3.56,3.6,8.68,4.56,13.64,4.34,2.62-.12,5.17-.56,7.46-1.09,3.15-.73,6.06-1.73,8.35-2.64l-1.37-2.59Z"/>
                  <path class="cls-4" d="M102.26,36.36c-2.09,.8-4.59,1.6-7.25,2.23-2.27,.53-4.85,.97-7.46,1.09-4.95,.22-10.06-.74-13.64-4.34-.97-1-2.05-1.82-3.23-2.49l1.09,2.7c1.17,.66,2.24,1.49,3.23,2.49,3.56,3.6,8.68,4.56,13.64,4.34,2.62-.12,5.17-.55,7.46-1.09,2.78-.67,5.36-1.51,7.51-2.32l-1.35-2.61Zm2.72,5.2c-2.2,.85-4.9,1.74-7.81,2.43-2.27,.53-4.85,.97-7.45,1.09-4.97,.22-10.08-.74-13.66-4.34-.97-1-2.05-1.82-3.23-2.49l1.09,2.7c1.17,.66,2.26,1.5,3.23,2.49,3.58,3.6,8.69,4.56,13.64,4.34,2.62-.12,5.19-.56,7.46-1.09,3.01-.71,5.84-1.66,8.07-2.52l-1.35-2.61Zm2.72,5.2c-2.28,.9-5.2,1.91-8.35,2.64-2.29,.54-4.85,.97-7.46,1.09-4.97,.22-10.08-.74-13.64-4.34-.98-.98-2.05-1.82-3.23-2.49l1.07,2.7c1.17,.66,2.26,1.5,3.23,2.49,3.58,3.6,8.69,4.56,13.66,4.34,2.6-.12,5.17-.56,7.45-1.09,3.29-.76,6.31-1.82,8.63-2.75l-1.35-2.59Zm3.9,7.5l-1.2-2.31-.15-.3c-4.05,1.46-6.21,2.24-7.38,2.67-.17,.06-.33,.11-.47,.17-.54,.19-.75,.26-.84,.3l-.05,.02c-2.27,.53-4.85,.97-7.46,1.09-4.95,.22-10.06-.72-13.64-4.34-1.15-1.16-2.43-2.08-3.83-2.79-.2-.1-.41-.2-.6-.29-.25-.12-.5-.22-.74-.3-.18-.07-.35-.13-.53-.18-.11-.05-.21-.08-.34-.12-.25-.08-.49-.17-.74-.21-.19-.07-.39-.12-.58-.15-.34-.08-.67-.15-1-.19-.02-.02-.05-.02-.07-.02-.35-.06-.72-.11-1.07-.14-.39-.05-.76-.07-1.14-.08-.6-.02-1.21-.03-1.84,0-.19,.02-.4,.03-.61,.05-8.54,.58-16.69,5.69-16.77,5.73l1.09,2.7c.07-.04,8.23-5.15,16.77-5.73,.21-.02,.4-.03,.61-.05,5.14-.22,9.35,1.28,12.51,4.47,3.56,3.62,8.68,4.56,13.64,4.34,2.62-.12,5.17-.55,7.46-1.09,.02,0,.04,0,.05-.02,3.53-.82,6.74-1.97,9.11-2.93l-.16-.3Zm2.72,5.2l-1.2-2.31-.15-.28c-.16,.06-.3,.09-.44,.15-.63,.22-1.22,.44-1.76,.63-.56,.2-1.05,.39-1.52,.56-.23,.07-.45,.17-.66,.24-.59,.2-1.12,.39-1.57,.56-.87,.32-1.52,.54-1.99,.72-.17,.06-.33,.11-.47,.17-.54,.19-.75,.26-.84,.3l-.05,.02c-2.27,.54-4.85,.97-7.45,1.09-4.97,.22-10.08-.72-13.64-4.34-3.17-3.19-7.36-4.69-12.5-4.47-.21,.02-.42,.03-.63,.05-8.53,.58-16.69,5.69-16.77,5.73l1.09,2.7c.09-.04,8.23-5.14,16.77-5.73,.21-.02,.42-.03,.61-.05,5.14-.22,9.35,1.28,12.51,4.47,3.58,3.62,8.69,4.56,13.64,4.34,2.62-.12,5.19-.56,7.46-1.09,.02,0,.03,0,.05-.02,3.8-.88,7.23-2.16,9.65-3.17l-.15-.26Zm1.49,2.87l-.13-.26c-1.01,.37-1.94,.69-2.74,.98-.56,.2-1.05,.39-1.52,.56-.23,.07-.45,.17-.66,.24-.59,.2-1.12,.39-1.57,.56-.87,.32-1.52,.54-1.99,.72-.17,.06-.33,.11-.47,.17-.54,.19-.75,.26-.84,.3l-.05,.02c-2.29,.54-4.85,.97-7.46,1.09-4.97,.22-10.08-.72-13.64-4.34-3.15-3.19-7.36-4.69-12.5-4.47-.21,.02-.4,.03-.61,.05-8.54,.58-16.7,5.69-16.77,5.73l1.07,2.7c.09-.04,8.25-5.15,16.77-5.73,.21-.02,.42-.03,.63-.05,5.14-.22,9.33,1.28,12.5,4.47,3.56,3.62,8.68,4.56,13.64,4.34,2.6-.12,5.17-.55,7.45-1.09,.02,0,.04,0,.05-.02,4.08-.96,7.77-2.34,10.2-3.39l-1.35-2.57Z"/>
                  <path class="cls-6" d="M76.08,46.36l-1.07-2.7-1.09-2.7-1.09-2.7-1.07-2.7-1.09-2.7-1.05-2.6c-2.61-1.48-5.71-2.14-9.26-1.99-.21,0-.42,.03-.61,.03-8.54,.6-16.7,5.69-16.79,5.75l7.54,18.81c.09-.04,8.23-5.14,16.77-5.73,.21-.02,.42-.03,.61-.05,.63-.03,1.25-.02,1.84,0,.39,.01,.76,.04,1.14,.08,.35,.03,.72,.07,1.07,.14,.02,0,.05,0,.07,.02,.33,.05,.67,.11,1,.19,.19,.03,.39,.08,.58,.15,.26,.07,.51,.13,.74,.21,.12,.03,.23,.07,.34,.12,.18,.05,.35,.12,.53,.18,.25,.08,.5,.18,.74,.3,.21,.08,.41,.19,.6,.29,.21,.08,.41,.2,.6,.3l-1.09-2.7Zm-4.33-7.82c.21,.1,.41,.19,.6,.27l-.29,.25,.49,.83-.68-.67-.31,.27-.12-.68-.68-.64c.21,.07,.41,.15,.62,.22l-.1-.67,.47,.82Zm-9.67-1.1c.42-.04,.84-.09,1.26-.11t.04,0c-.02-.26-.02-.28-.03-.77,.18,.24,.38,.48,.56,.74h.07c.23-.02,.47-.03,.7-.03l-.43,.48,.54,.75c-.05,0-.12,0-.19-.01-.07,0-.14,0-.18-.01-.11-.05-.18-.12-.25-.19-.07-.09-.14-.16-.23-.22-.03,.14-.06,.28-.1,.42v.02c-.09,.02-.21,.02-.31,.04-.11,.02-.23,.02-.32,.04l.11-.78-1.24-.36Zm.31,3.23l-1.24-.28-.85,.68,.09-.83-1.2-.24c.42-.1,.84-.19,1.26-.29l.11-.83,.7,.69c.42-.08,.86-.16,1.3-.2l-.87,.61,.7,.67Zm-4.7-4.44c.42-.1,.84-.19,1.26-.29l.09-.83,.7,.69c.44-.08,.88-.16,1.31-.2l-.87,.61,.7,.67-1.23-.28-.85,.68,.09-.83-1.2-.24Zm.34,3.33l-1.16-.17-.78,.75,.07-.86-1.13-.14c.38-.13,.77-.26,1.17-.39l.07-.86,.66,.64c.4-.11,.82-.23,1.22-.34l-.81,.74,.68,.64Zm-2.54,2.96l-1.07-.14-.65,.8,.02-.88-1-.12c.33-.13,.68-.28,1.01-.41l.04-.88,.63,.62c.37-.15,.73-.28,1.1-.41l-.71,.79,.64,.62Zm-4.22-4.12c.33-.13,.66-.28,1.01-.41l.04-.88,.63,.62c.37-.15,.73-.28,1.1-.41l-.71,.79,.63,.62-1.06-.14-.65,.8,.02-.88-1-.12Zm.56,3.42l-.9-.14-.49,.78-.05-.86-.83-.14c.24-.13,.52-.27,.8-.4l-.03-.88,.57,.62c.3-.13,.61-.27,.92-.4l-.56,.8,.57,.62Zm12.26-6.43c.26,0,.51,0,.76,0l-.07-.74,.52,.76c.25,.01,.49,.03,.72,.04l-.4,.43,.52,.76-.78-.49-.41,.45-.07-.75-.8-.46Zm2.27,3.79l-.07-.74,.52,.76c.25,.01,.49,.03,.72,.04l-.4,.43,.52,.76-.78-.49-.41,.45-.07-.75-.8-.46c.26,0,.51,0,.76,0Zm.58-1.8c.25,.01,.47,.04,.7,.07l-.08-.72,.52,.78c.23,.05,.46,.08,.69,.13l-.38,.36,.51,.78-.73-.55-.38,.39-.08-.72-.77-.53Zm1.22-1.6c.23,.05,.44,.12,.67,.16l-.1-.7,.51,.82c.21,.05,.42,.12,.64,.18l-.33,.3,.49,.82-.71-.62-.35,.32-.1-.7-.71-.58Zm2.18,3.95l-.1-.7,.51,.82c.21,.05,.42,.11,.64,.18l-.33,.3,.49,.82-.71-.62-.35,.32-.08-.7-.73-.58c.23,.05,.44,.11,.67,.16Zm-.58-5.77l.49,.82c.21,.1,.41,.19,.6,.27l-.29,.25,.49,.83-.68-.67-.31,.27-.12-.68-.68-.64c.19,.07,.41,.15,.62,.22l-.12-.67Zm-1.51-3.78l.49,.82c.21,.1,.41,.19,.6,.27l-.29,.25,.47,.83-.66-.67-.33,.27-.1-.68-.7-.64c.21,.07,.42,.13,.64,.22l-.12-.67Zm-1.03,1.28l.49,.8c.23,.07,.44,.13,.65,.2l-.35,.31,.51,.82-.71-.62-.35,.32-.1-.7-.71-.58c.21,.05,.44,.1,.65,.16l-.08-.7Zm-.64,2.28c.23,.05,.46,.08,.67,.13l-.36,.36,.51,.78-.73-.55-.4,.39-.07-.74-.77-.51c.23,.01,.48,.04,.7,.07l-.08-.72,.52,.78Zm-2.04-4.56l.51,.78c.25,.05,.48,.08,.69,.13l-.36,.36,.51,.78-.75-.55-.38,.38-.08-.72-.75-.51c.23,.01,.48,.04,.7,.07l-.08-.72Zm-1.27,1.71l.52,.75c.25,.01,.48,.04,.72,.06l-.4,.43,.52,.76-.78-.49-.41,.43-.07-.74-.8-.46c.25,0,.51,0,.76,0l-.07-.74Zm-1.42,1.91c.16,.23,.38,.5,.56,.75,.02,0,.04,0,.07-.02h.7s-.43,.47-.43,.47l.52,.75c-.05-.02-.12-.02-.18-.01-.07,0-.14,0-.18-.01-.11-.05-.18-.12-.25-.19-.07-.07-.14-.16-.23-.22-.03,.14-.06,.28-.11,.42v.02c-.09,0-.19,.02-.3,.04-.1,.02-.23,.04-.32,.04l.11-.77-1.24-.36c.42-.04,.84-.09,1.26-.11t.04,0c-.02-.14-.03-.46-.03-.77Zm-1.51-3.01s.02,0,.04,0c-.02-.21-.02-.37-.03-.77,.16,.23,.38,.5,.56,.74,.02,0,.04,0,.05-.02h.72s-.43,.47-.43,.47l.52,.73c-.11,0-.26,.02-.35-.03-.19-.08-.32-.26-.48-.4-.03,.14-.06,.28-.12,.42v.02c-.09,.02-.19,.02-.3,.04-.11,.02-.23,.02-.32,.04l.11-.78-1.24-.36c.42-.04,.84-.09,1.26-.11Zm-2.89,2.39l.09-.83,.7,.67c.44-.06,.88-.14,1.31-.2l-.88,.63,.7,.67-1.22-.28-.85,.68,.09-.84-1.2-.22c.4-.1,.84-.19,1.26-.29Zm-.78,2.25l-.81,.74,.68,.64-1.16-.17-.78,.75,.07-.86-1.13-.14c.38-.15,.77-.26,1.17-.39l.07-.86,.66,.64c.4-.11,.82-.23,1.22-.34Zm-3.47-3.22l.05-.86,.68,.64c.4-.11,.8-.23,1.22-.34l-.81,.74,.68,.64-1.16-.17-.78,.75,.07-.86-1.13-.14c.38-.15,.77-.26,1.17-.39Zm-2.42,3.01l.04-.86,.63,.62c.35-.15,.71-.28,1.1-.41l-.71,.79,.63,.62-1.06-.14-.65,.8,.02-.88-1-.12c.33-.13,.66-.28,1.01-.42Zm-.46,2.42l-.56,.8,.57,.62-.92-.14-.49,.78-.03-.86-.85-.14c.26-.13,.54-.27,.82-.4l-.03-.88,.57,.62c.3-.13,.61-.28,.92-.4Zm-3.01-4l.57,.62c.3-.13,.61-.28,.92-.4l-.56,.8,.57,.6-.92-.12-.49,.78-.03-.86-.85-.14c.26-.13,.54-.27,.82-.4l-.03-.88Zm-2.94,3.34l-.06,.6-.21-.79-.38-.36c.05-.04,.14-.07,.24-.14l-.21-.8,.42,.68c.12-.06,.28-.15,.43-.24l-.18,.67,.43,.66-.5-.27Zm1.51,3.78l-.06,.6-.21-.79-.38-.36c.05-.04,.14-.07,.24-.15l-.19-.8,.4,.7c.12-.07,.28-.16,.43-.25l-.16,.67,.42,.68-.5-.29Zm.35-1.94l-.14-.84-.62-.23c.17-.09,.35-.18,.56-.29l-.1-.86,.49,.64c.23-.11,.47-.24,.71-.36l-.39,.76,.5,.64-.72-.18-.28,.73Zm1.16,5.72l-.06,.6-.21-.79-.38-.36c.05-.04,.14-.07,.24-.15l-.19-.8,.4,.69c.14-.07,.28-.16,.43-.25l-.16,.67,.42,.68-.5-.29Zm.35-1.94l-.12-.84-.64-.23c.17-.09,.37-.18,.56-.29l-.1-.86,.5,.64c.21-.11,.45-.24,.7-.35l-.39,.75,.5,.64-.72-.18-.29,.73Zm1.16,5.72l-.04,.6-.23-.79-.38-.34c.07-.05,.14-.09,.24-.16l-.19-.8,.42,.69c.12-.07,.26-.16,.42-.25l-.16,.67,.42,.68-.5-.29Zm.35-1.94l-.12-.84-.64-.23c.17-.09,.37-.18,.56-.29l-.1-.86,.5,.64c.21-.11,.45-.22,.7-.35l-.39,.75,.52,.64-.74-.18-.28,.73Zm1.18,5.72l-.06,.6-.23-.79-.38-.34c.07-.04,.16-.09,.26-.16l-.21-.8,.42,.69c.12-.07,.26-.16,.42-.25l-.16,.67,.43,.68-.5-.29Zm.63-2.66l-.3,.73-.12-.84-.64-.23c.17-.09,.37-.18,.56-.29l-.1-.86,.5,.64c.23-.11,.45-.22,.7-.35l-.39,.75,.52,.64-.72-.18Zm.89-2.18l-.05-.86-.83-.14c.24-.13,.52-.27,.8-.4l-.03-.86,.57,.6c.3-.13,.61-.28,.94-.4l-.58,.8,.59,.62-.92-.14-.49,.78Zm2.92,3.14l-.92-.14-.49,.78-.05-.86-.83-.14c.26-.13,.52-.26,.8-.4l-.03-.86,.57,.62c.3-.15,.61-.28,.94-.42l-.58,.8,.59,.62Zm2.14-3.08l-1.07-.14-.65,.8,.02-.88-.99-.12c.31-.13,.66-.28,1.01-.41l.02-.88,.63,.62c.37-.15,.73-.28,1.1-.41l-.71,.79,.64,.62Zm-.45-3.38c.38-.13,.77-.26,1.17-.39l.07-.86,.66,.64c.4-.11,.82-.23,1.24-.34l-.81,.74,.66,.64-1.16-.17-.76,.77,.05-.88-1.13-.14Zm4.52,4.2l-1.18-.17-.76,.77,.05-.88-1.13-.14c.38-.13,.77-.26,1.17-.39l.07-.86,.68,.64c.4-.11,.8-.23,1.22-.34l-.81,.74,.68,.64Zm2.83-2.67l-1.23-.28-.85,.68,.09-.83-1.2-.24c.42-.1,.84-.19,1.26-.29l.11-.81,.7,.67c.42-.08,.86-.16,1.3-.2l-.87,.61,.7,.67Zm.84-2.09l.11-.78-1.25-.36c.42-.04,.84-.09,1.28-.11h.02c0-.26,0-.28-.03-.77,.18,.24,.38,.5,.56,.74h.07c.23-.02,.47-.03,.7-.03l-.43,.48,.54,.75c-.05-.02-.12-.02-.19-.01-.05,0-.12,0-.18-.01-.11-.05-.18-.12-.25-.19-.07-.07-.14-.16-.23-.22-.03,.14-.07,.28-.1,.42v.02c-.09,0-.21,.02-.31,.04-.11,.02-.21,.04-.3,.04Zm2.88,3.69c-.05,0-.12,0-.18-.01-.09-.05-.18-.12-.25-.19-.07-.09-.14-.16-.23-.22-.03,.14-.07,.28-.1,.42v.02c-.09,.02-.21,.02-.32,.04-.11,.02-.21,.02-.3,.04l.11-.78-1.25-.36c.42-.04,.86-.09,1.28-.11h.02c0-.19,0-.37-.03-.77,.2,.24,.38,.49,.56,.75h.07c.25-.02,.47-.03,.7-.03l-.43,.48,.54,.75c-.05,0-.12,0-.19-.01Zm.76-2.33l-.41,.45-.07-.75-.8-.46c.26,0,.51,0,.76,0l-.07-.74,.52,.76c.25,.01,.49,.03,.72,.04l-.4,.43,.52,.76-.78-.49Zm.91-1.32l-.08-.72-.77-.53c.25,.01,.48,.04,.7,.07l-.08-.72,.52,.78c.23,.05,.46,.08,.69,.13l-.38,.36,.52,.78-.75-.55-.38,.39Zm1.89,3.39l-.38,.39-.08-.72-.77-.53c.25,.01,.48,.04,.72,.07l-.08-.72,.51,.78c.23,.05,.46,.08,.69,.13l-.36,.36,.51,.78-.75-.55Zm1.17-1.5l-.36,.32-.08-.7-.73-.58c.23,.05,.44,.11,.67,.16l-.1-.7,.51,.82c.21,.05,.42,.11,.64,.18l-.33,.3,.49,.82-.7-.62Zm1.03-1.28l-.31,.27-.1-.68-.7-.64c.21,.07,.42,.15,.62,.22l-.1-.67,.49,.82c.2,.1,.39,.19,.58,.27l-.29,.25,.49,.83-.68-.67Zm1.51,3.78l-.31,.27-.1-.68-.7-.64c.21,.07,.42,.15,.62,.22l-.1-.67,.49,.83c.19,.08,.39,.17,.6,.27l-.31,.23,.49,.83-.68-.67Z"/>
                  <path class="cls-4" d="M43.75,34.45l.2,.81c-.1,.06-.19,.11-.25,.15l.38,.34,.22,.8,.06-.6,.5,.28-.43-.67,.17-.66c-.16,.09-.3,.17-.43,.24l-.41-.68h0Z"/>
                  <path class="cls-4" d="M45.26,38.23l.2,.81c-.1,.06-.19,.11-.25,.15l.38,.35,.22,.8,.06-.6,.5,.28-.43-.67,.17-.66c-.16,.09-.3,.17-.43,.24l-.41-.68h0Z"/>
                  <path class="cls-4" d="M46.78,42.02l.2,.81c-.1,.06-.19,.11-.25,.15l.38,.35,.22,.8,.06-.6,.5,.28-.43-.67,.17-.66c-.16,.09-.3,.17-.43,.24l-.41-.68h0Z"/>
                  <path class="cls-4" d="M48.29,45.8l.2,.8c-.1,.06-.19,.11-.25,.15l.38,.35,.22,.8,.06-.6,.5,.28-.43-.67,.17-.66c-.16,.09-.3,.17-.43,.24l-.41-.68h0Z"/>
                  <path class="cls-4" d="M49.81,49.59l.2,.81c-.1,.06-.19,.11-.25,.15l.38,.35,.22,.8,.06-.6,.5,.28-.43-.67,.17-.66c-.16,.09-.3,.17-.43,.24l-.41-.68h0Z"/>
                  <path class="cls-4" d="M45.9,35.57l.11,.85c-.2,.11-.39,.21-.56,.3l.63,.22,.12,.84,.3-.72,.73,.18-.51-.64,.39-.76c-.25,.13-.49,.25-.71,.36l-.5-.64h0Z"/>
                  <path class="cls-4" d="M47.41,39.36l.11,.85c-.2,.11-.39,.21-.55,.3l.63,.22,.12,.84,.3-.72,.73,.18-.51-.64,.39-.76c-.25,.13-.49,.25-.71,.36l-.5-.64h0Z"/>
                  <path class="cls-4" d="M48.93,43.14l.11,.85c-.2,.11-.39,.21-.55,.3l.63,.22,.12,.84,.3-.72,.73,.18-.51-.64,.39-.76c-.25,.13-.49,.25-.71,.36l-.5-.64h0Z"/>
                  <path class="cls-4" d="M50.44,46.92l.11,.85c-.2,.11-.39,.21-.55,.3l.63,.22,.12,.84,.3-.72,.73,.18-.51-.64,.39-.76c-.25,.13-.49,.25-.71,.36l-.5-.64h0Z"/>
                  <path class="cls-4" d="M47.28,32.61l.03,.87c-.28,.13-.55,.27-.81,.39l.83,.15,.05,.87,.5-.78,.91,.13-.58-.62,.57-.8c-.32,.14-.63,.28-.93,.42l-.57-.62h0Z"/>
                  <path class="cls-4" d="M48.8,36.4l.03,.87c-.28,.13-.55,.27-.81,.39l.83,.15,.05,.87,.49-.79,.91,.13-.58-.62,.57-.8c-.32,.14-.63,.28-.93,.42l-.57-.62h0Z"/>
                  <path class="cls-4" d="M50.31,40.18l.03,.87c-.28,.13-.55,.27-.81,.39l.83,.15,.05,.87,.49-.79,.91,.13-.58-.62,.57-.8c-.32,.14-.63,.28-.93,.42l-.57-.62h0Z"/>
                  <path class="cls-4" d="M51.83,43.97l.03,.87c-.28,.13-.55,.27-.81,.39l.83,.15,.05,.87,.49-.79,.91,.13-.58-.62,.57-.8c-.32,.14-.63,.28-.93,.42l-.57-.62h0Z"/>
                  <path class="cls-4" d="M53.34,47.75l.03,.87c-.28,.13-.55,.27-.81,.39l.83,.15,.05,.87,.49-.78,.91,.13-.58-.62,.57-.8c-.32,.14-.63,.28-.93,.42l-.57-.62h0Z"/>
                  <path class="cls-4" d="M50.79,33.32l-.03,.87c-.35,.14-.68,.28-1.01,.42l1,.12-.02,.88,.65-.8,1.06,.13-.64-.62,.71-.79c-.38,.13-.74,.27-1.1,.41l-.63-.62h0Z"/>
                  <path class="cls-4" d="M52.31,37.11l-.03,.88c-.35,.14-.68,.28-1.01,.42l1,.12-.02,.88,.65-.8,1.06,.13-.64-.62,.71-.79c-.38,.13-.74,.27-1.1,.41l-.63-.62h0Z"/>
                  <path class="cls-4" d="M53.82,40.89l-.03,.88c-.35,.14-.68,.28-1.01,.42l1,.12-.02,.88,.65-.8,1.06,.13-.64-.62,.71-.79c-.38,.13-.74,.27-1.1,.41l-.63-.62h0Z"/>
                  <path class="cls-4" d="M55.33,44.68l-.03,.88c-.35,.14-.68,.28-1.01,.42l1,.12-.02,.88,.65-.8,1.06,.13-.64-.62,.71-.79c-.38,.13-.74,.27-1.1,.41l-.63-.62h0Z"/>
                  <path class="cls-4" d="M53.24,30.31l-.07,.86c-.4,.12-.78,.25-1.16,.38l1.12,.15-.06,.86,.77-.76,1.17,.18-.68-.64,.81-.73c-.41,.11-.82,.22-1.23,.34l-.67-.64h0Z"/>
                  <path class="cls-4" d="M54.76,34.1l-.07,.86c-.4,.12-.78,.25-1.16,.38l1.12,.15-.06,.86,.77-.76,1.17,.18-.68-.64,.81-.73c-.42,.11-.83,.22-1.23,.34l-.67-.64h0Z"/>
                  <path class="cls-4" d="M56.27,37.88l-.07,.86c-.4,.12-.78,.25-1.16,.38l1.12,.15-.06,.86,.77-.76,1.17,.18-.68-.64,.81-.73c-.42,.11-.83,.22-1.23,.34l-.67-.64h0Z"/>
                  <path class="cls-4" d="M57.79,41.67l-.07,.86c-.4,.12-.78,.25-1.16,.38l1.12,.15-.06,.86,.77-.76,1.17,.18-.68-.64,.81-.73c-.42,.11-.83,.22-1.23,.34l-.67-.64h0Z"/>
                  <path class="cls-4" d="M59.3,45.45l-.07,.86c-.4,.12-.78,.25-1.16,.38l1.12,.15-.06,.86,.77-.76,1.17,.18-.68-.64,.81-.73c-.41,.11-.82,.22-1.23,.34l-.67-.64h0Z"/>
                  <path class="cls-4" d="M57.53,31.33l-.1,.82c-.43,.09-.85,.18-1.27,.29l1.21,.23-.09,.83,.85-.68,1.23,.28-.7-.68,.87-.62c-.44,.06-.87,.12-1.3,.2l-.7-.67h0Z"/>
                  <path class="cls-4" d="M59.04,35.11l-.1,.83c-.43,.09-.85,.18-1.27,.29l1.21,.23-.09,.83,.85-.68,1.23,.28-.7-.68,.87-.62c-.44,.06-.87,.12-1.3,.2l-.7-.67h0Z"/>
                  <path class="cls-4" d="M60.56,38.9l-.1,.83c-.43,.09-.85,.18-1.27,.29l1.21,.23-.09,.83,.85-.68,1.23,.28-.7-.68,.87-.62c-.44,.06-.87,.12-1.3,.2l-.7-.67h0Z"/>
                  <path class="cls-4" d="M62.07,42.68l-.1,.83c-.43,.09-.85,.18-1.27,.29l1.21,.23-.09,.83,.85-.68,1.23,.28-.7-.68,.87-.62c-.44,.06-.87,.12-1.3,.2l-.7-.67h0Z"/>
                  <path class="cls-4" d="M60.32,28.99c.01,.4,.02,.57,.03,.76,0,0-.02,0-.03,0-.43,.03-.85,.07-1.27,.12l1.25,.36-.11,.78c.19-.03,.43-.07,.62-.1,.04-.14,.07-.29,.11-.43,.16,.13,.29,.3,.48,.4,.1,.05,.25,.03,.36,.03l-.54-.74,.43-.48c-.23,0-.47,0-.71,.02-.02,0-.04,0-.06,0-.17-.23-.39-.51-.56-.73h0Z"/>
                  <path class="cls-4" d="M61.83,32.77c.01,.31,.02,.62,.04,.76,0,0-.02,0-.03,0-.43,.03-.85,.07-1.27,.12l1.25,.36-.11,.78c.19-.03,.43-.07,.62-.1,.04-.14,.07-.29,.11-.43,.16,.13,.29,.3,.48,.4,.1,.05,.25,.03,.36,.03l-.54-.74,.43-.48c-.23,0-.47,0-.71,.02-.02,0-.04,0-.06,0-.17-.23-.39-.51-.56-.73h0Z"/>
                  <path class="cls-4" d="M63.35,36.56c.02,.49,.02,.51,.04,.76,0,0-.02,0-.03,0-.43,.03-.85,.07-1.27,.12l1.25,.36-.11,.78c.19-.03,.43-.07,.62-.1,.04-.14,.07-.29,.11-.43,.16,.13,.29,.31,.48,.4,.1,.05,.25,.03,.36,.03l-.54-.74,.43-.48c-.23,0-.47,0-.71,.02-.02,0-.04,0-.06,0-.19-.24-.37-.49-.56-.73h0Z"/>
                  <path class="cls-4" d="M64.86,40.34c.02,.48,.02,.5,.03,.76,0,0-.02,0-.03,0-.43,.03-.85,.07-1.27,.12l1.25,.36-.11,.78c.19-.03,.43-.07,.62-.1,.04-.14,.07-.29,.11-.43,.16,.13,.29,.31,.48,.4,.1,.05,.25,.03,.36,.03l-.54-.74,.43-.48c-.23,0-.47,0-.71,.02-.02,0-.04,0-.06,0-.19-.24-.37-.49-.56-.73h0Z"/>
                  <path class="cls-4" d="M66.38,44.13c.01,.4,.02,.57,.03,.76,0,0-.02,0-.03,0-.43,.03-.85,.07-1.27,.12l1.25,.36-.11,.78c.19-.03,.43-.07,.62-.1,.04-.14,.07-.29,.11-.43,.16,.13,.29,.3,.48,.4,.1,.05,.25,.03,.36,.03l-.54-.74,.43-.48c-.23,0-.47,0-.71,.02-.02,0-.04,0-.06,0-.19-.26-.37-.49-.56-.73h0Z"/>
                  <path class="cls-4" d="M63.25,30.86l.07,.74c-.25,0-.5,0-.75,0l.79,.47,.07,.74,.42-.45,.78,.49-.52-.76,.4-.42c-.24-.02-.48-.04-.73-.05l-.53-.76h0Z"/>
                  <path class="cls-4" d="M64.77,34.64l.07,.74c-.25,0-.5-.01-.75,0l.79,.47,.07,.74,.42-.45,.78,.49-.52-.76,.4-.42c-.24-.02-.48-.04-.73-.05l-.53-.76h0Z"/>
                  <path class="cls-4" d="M66.28,38.43l.07,.74c-.25,0-.5-.01-.75,0l.79,.47,.07,.74,.42-.45,.78,.49-.52-.76,.4-.42c-.24-.02-.48-.04-.73-.05l-.53-.76h0Z"/>
                  <path class="cls-4" d="M67.79,42.21l.07,.74c-.25,0-.5-.01-.75,0l.79,.47,.07,.74,.42-.45,.78,.49-.52-.76,.4-.42c-.24-.02-.48-.04-.73-.05l-.53-.76h0Z"/>
                  <path class="cls-4" d="M64.53,29.16l.08,.72c-.23-.03-.47-.06-.71-.08l.76,.53,.08,.72,.38-.39,.74,.55-.51-.78,.37-.36c-.23-.05-.45-.09-.69-.12l-.51-.78h0Z"/>
                  <path class="cls-4" d="M66.04,32.94l.08,.72c-.23-.03-.47-.06-.71-.08l.76,.53,.08,.72,.38-.39,.74,.55-.51-.78,.37-.36c-.23-.05-.45-.09-.69-.12l-.51-.78h0Z"/>
                  <path class="cls-4" d="M67.56,36.72l.08,.72c-.23-.03-.47-.06-.71-.08l.76,.53,.08,.72,.38-.39,.74,.55-.51-.78,.37-.36c-.23-.05-.45-.09-.69-.12l-.51-.78h0Z"/>
                  <path class="cls-4" d="M69.07,40.51l.08,.71c-.23-.03-.47-.06-.71-.08l.76,.53,.08,.72,.38-.39,.74,.55-.51-.78,.37-.36c-.23-.05-.45-.09-.69-.12l-.51-.78h0Z"/>
                  <path class="cls-4" d="M70.59,44.29l.08,.72c-.23-.03-.47-.06-.71-.08l.76,.53,.08,.72,.38-.39,.74,.55-.51-.78,.37-.36c-.23-.05-.45-.09-.69-.12l-.51-.78h0Z"/>
                  <path class="cls-4" d="M67.2,31.44l.1,.69c-.22-.06-.44-.11-.67-.16l.73,.59,.09,.7,.35-.33,.71,.61-.5-.81,.33-.3c-.21-.07-.43-.14-.64-.2l-.5-.8h0Z"/>
                  <path class="cls-4" d="M68.71,35.23l.1,.69c-.22-.06-.44-.11-.67-.16l.72,.58,.09,.7,.35-.33,.71,.61-.5-.81,.33-.3c-.21-.07-.43-.14-.64-.2l-.5-.8h0Z"/>
                  <path class="cls-4" d="M70.23,39.01l.1,.69c-.22-.06-.44-.11-.67-.15l.73,.58,.09,.7,.35-.33,.71,.61-.5-.81,.33-.3c-.21-.07-.43-.14-.64-.2l-.5-.8h0Z"/>
                  <path class="cls-4" d="M71.74,42.79l.1,.69c-.22-.06-.44-.11-.67-.15l.72,.58,.09,.7,.35-.33,.71,.61-.5-.81,.33-.3c-.21-.07-.43-.13-.64-.2l-.5-.8h0Z"/>
                  <path class="cls-4" d="M68.24,30.15l.11,.67c-.21-.08-.41-.16-.63-.23l.69,.64,.11,.67,.32-.27,.68,.67-.48-.83,.3-.24c-.2-.09-.4-.18-.6-.27l-.49-.83h0Z"/>
                  <path class="cls-4" d="M69.75,33.94l.11,.67c-.21-.08-.41-.16-.63-.23l.69,.64,.11,.68,.32-.27,.68,.67-.49-.83,.3-.24c-.2-.09-.4-.18-.6-.27l-.49-.83h0Z"/>
                  <path class="cls-4" d="M71.27,37.72l.11,.67c-.21-.08-.41-.16-.63-.23l.69,.64,.11,.68,.32-.27,.68,.67-.49-.83,.3-.24c-.2-.09-.4-.18-.6-.27l-.49-.83h0Z"/>
                  <path class="cls-4" d="M72.78,41.5l.11,.67c-.21-.08-.41-.16-.63-.23l.69,.65,.11,.68,.32-.27,.68,.67-.49-.83,.3-.24c-.2-.09-.4-.18-.6-.27l-.49-.82h0Z"/>
                  <path class="cls-4" d="M74.3,45.29l.11,.67c-.21-.08-.41-.16-.63-.23l.69,.64,.11,.67,.32-.27,.67,.67-.48-.83,.3-.24c-.2-.09-.4-.18-.6-.27l-.49-.83h0Z"/>
                </g>
                <polygon class="cls-3" points="38.29 29.89 65.95 101.22 71.82 98.35 42.17 26.55 38.29 29.89"/>
              </g>
              <path class="cls-13" d="M154.83,178.46l-69.76-1.04-15.6-71.24,17.03-3.84-.39-12.09-19.7-19.15-20.18,19.08-2.82,24.4-8.28,82.54c1.19,19.71,3.16,40.41,32.27,40.25l67.41-8.24s55.53-21.95,20.03-50.67Z"/>
              <path class="cls-8" d="M93.97,177.76c6.16,5.25,1.69,63.22-16.34,82.18,0,0,96.06,.16,110.26-33.65,14.2-33.8-33.06-47.82-33.06-47.82l-60.86-.71Z"/>
              <polygon class="cls-3" points="66.88 100.3 72.12 97.51 80.58 115.87 75.91 117.95 66.88 100.3"/>
            </g>
            <g>
              <path class="cls-11" d="M227.94,119.48c0,1.9,1.54,3.84,1.35,5.69-.2,1.88-2.62,3.36-3,5.18-.39,1.85,2.54,4.61,1.97,6.38-.58,1.79-4.92,2.15-5.68,3.85-.77,1.72,.2,4.22-.73,5.84-.94,1.63-1.37,3.66-2.47,5.17-1.1,1.52-3.05,2.41-4.31,3.81-1.25,1.39-4.03,1.11-5.43,2.36-1.39,1.25-1.35,4.11-2.87,5.21-1.51,1.1-2.59,3-4.22,3.94-1.62,.94-4.42-.48-6.14,.29-1.7,.76-2.98,2.41-4.77,2.99-1.77,.57-3.27,2.33-5.12,2.72-1.82,.38-4-1.53-5.88-1.34-1.84,.19-3.58,2.26-5.48,2.26s-3.92,.65-5.76,.46c-1.88-.2-3.36-2.97-5.18-3.36-1.85-.39-3.83,.02-5.6-.56-1.79-.58-3.65-.97-5.35-1.73-1.72-.77-3.21-1.96-4.82-2.89-1.63-.94-3.35-1.71-4.86-2.81-1.52-1.1-3.61-1.59-5-2.84-1.39-1.25-2.99-2.47-4.25-3.86-1.25-1.39-.82-4.19-1.92-5.7-1.1-1.51-1.63-3.27-2.57-4.89-.94-1.62-1.08-3.45-1.85-5.16-.76-1.7-1.59-3.18-2.17-4.97-.58-1.77-.85-3.43-1.24-5.28-.38-1.82-4.23-3.09-4.43-4.97-.19-1.84,3.23-3.88,3.23-5.78s-2.1-3.8-1.9-5.64c.2-1.88-.54-3.98-.16-5.8,.39-1.85,1.58-3.58,2.16-5.35,.58-1.79,1.65-3.44,2.41-5.14,.77-1.72,3.02-2.61,3.95-4.23,.94-1.63,1.43-3.41,2.53-4.92,1.1-1.52,1.34-3.71,2.59-5.11,1.25-1.39,2.68-2.68,4.07-3.93,1.39-1.25,3.05-2.21,4.57-3.31,1.51-1.1,2.42-3.28,4.04-4.22,1.62-.94,3.74-1.12,5.46-1.89,1.7-.76,3.61-1.13,5.41-1.71,1.77-.57,3.45-1.8,5.29-2.19,1.82-.38,3.87,.33,5.76,.13,1.84-.19,3.71,.02,5.6,.02s3.62,1.1,5.47,1.29c1.88,.2,4.32-3,6.14-2.62,1.85,.39,3.2,3.03,4.97,3.6,1.79,.58,2.93,2.61,4.64,3.37,1.72,.77,3.24,1.55,4.86,2.48,1.63,.94,5.04-.84,6.55,.26,1.52,1.1,.49,5.33,1.88,6.58,1.39,1.25,4.44,.73,5.69,2.13,1.25,1.39,3.07,2.44,4.18,3.95,1.1,1.51,2.93,2.76,3.87,4.39,.94,1.62-.38,4.49,.38,6.21,.76,1.7,.82,3.6,1.4,5.39,.57,1.77,1.98,3.27,2.37,5.12,.38,1.82,2.71,3.45,2.91,5.33,.19,1.84-2.53,3.92-2.53,5.81Z"/>
              <path class="cls-5" d="M203.62,176.2l30.14,9.81c13.72,5.06,36.87,21.25,34.41,35.66-1.71,9.97-26.19,93.95-28.07,92.14,8.89,35.44,10.63,53.29-3.42,77.6,0,0-122.78-5.61-157.26-32.05,0,0,14.77-23.93,27.33-64.16,13.39-42.89,3.89-65.46,14.9-93.59,6.95-17.74,30.64-25.36,49.69-25.41h32.28Z"/>
              <path class="cls-13" d="M156.33,155.06s8.42,6.49,9.5,17.17c0,0-2.12,41.43,45.9,6.62,0,0-22.74-13.21-9.97-35.98,0,0-25.32-16.67-45.43,12.19Z"/>
              <path class="cls-12" d="M156.33,155.06s6.77,5.23,8.94,14c15.26-2.11,25.37-8.3,32-14.96,.75-3.36,2.19-7.11,4.51-11.24,0,0-25.32-16.66-45.45,12.21Z"/>
              <path class="cls-8" d="M267.02,226.69c-2.53,10.14-8.58,31.41-14.3,50.41-2.9-.45-6.13-1.69-9.75-3.88-34.1-20.45-31.17-61.09-31.17-61.09l2.86-8.64,52.36,23.2Z"/>
              <path class="cls-8" d="M132.96,268.81s4.51,40.53,73.14,54.03c0,0-92.81,29.18-73.14-54.03Z"/>
            </g>
            <g>
              <path class="cls-12" d="M160.5,136.28c3.18,4.44,2.16,10.61-2.28,13.79-4.44,3.18-10.61,2.16-13.79-2.28s-2.16-10.61,2.28-13.79c4.44-3.18,10.61-2.16,13.79,2.28Z"/>
              <path class="cls-13" d="M208.76,119.84c5.01,18.32-4.89,39.86-22.32,44.63-17.43,4.77-35.8-9.05-40.81-27.37-5.01-18.32,5.06-37.04,22.49-41.8,17.43-4.77,35.62,6.22,40.63,24.54Z"/>
              <path class="cls-12" d="M175.17,143.51c2.7,1.37,5.48,1.31,8.41-1.59,0,0-1.51,9.67-8.41,1.59Z"/>
              <path class="cls-4" d="M174.55,151.8l15.5-4.29s-2.5,6.37-6.47,7.73c-3.98,1.36-9.02-3.44-9.02-3.44Z"/>
              <path class="cls-11" d="M169.76,135.87c.78,1.09,.53,2.61-.56,3.39-1.09,.78-2.61,.53-3.39-.56-.78-1.09-.53-2.61,.56-3.39,1.09-.78,2.61-.53,3.39,.56Z"/>
              <path class="cls-11" d="M191.91,131.21c.78,1.09,.53,2.61-.56,3.39-1.09,.78-2.61,.53-3.39-.56-.78-1.09-.53-2.61,.56-3.39,1.09-.78,2.61-.53,3.39,.56Z"/>
              <path class="cls-11" d="M158.02,132.84s4.24-3.63,10.24-1.61c0,0,2.07-1.49-.49-3.64-2.47-2.07-9.79,.88-9.75,5.25Z"/>
              <path class="cls-11" d="M196.31,126.94s-4.85-2.76-10.36,.36c0,0-2.19-1.12-.21-3.66,1.99-2.56,9.78-.99,10.57,3.3Z"/>
              <path class="cls-11" d="M174.4,84.4c-44.64,4.89-35.98,42.97-35.98,42.97l4.77,3.92,6.11,17.9-.53-11.51c-.19-4.17,1.69-8.13,5.01-10.65,7.2-5.46,21.47-12.93,41-7.14,4.63,1.37,7.99,5.4,8.35,10.22l.38,5.09,6.42-2.48,1.5-10.98,3.89-2.79s-10.95-37.81-40.93-34.52Z"/>
              <path class="cls-13" d="M221.18,127.52c.81,5.4-6.34,11.86-11.74,12.67-5.4,.81-2.36-6.14-3.17-11.54-.81-5.4,1.11-8.65,6.51-9.45,5.4-.81,7.58,2.93,8.39,8.32Z"/>
            </g>
            <g>
              <path class="cls-10" d="M268.72,162.15s14.64,.75,40.4,46.61c0,0-52.23,.9-40.4-46.61Z"/>
              <g>
                <g>
                  <g>
                    <path class="cls-7" d="M348.23,14.11c-.54,.39-1.13,.74-1.69,1.11-3.18,1.97-6.91,3.81-11,5-7.39,2.14-15.99,2.1-24.65-3.38l2.71,1.71c8.69,5.48,17.26,5.52,24.65,3.4,4.05-1.17,7.73-2.99,10.85-4.94l-.87-2.9Zm4.83,16.55c-.24,.06-.48,.15-.72,.22-7.39,2.12-15.97,2.1-24.65-3.4l2.82,1.8,1,.61c7.8,4.55,15.47,4.81,22.25,3.16l-.69-2.38Zm1.34,4.61c-6.52,1.15-13.76,.39-21.06-4.22l2.82,1.78c6.5,4.12,12.93,5.18,18.87,4.55l-.63-2.1Zm1.17,4.03c-5.29,.17-10.92-1.08-16.59-4.68l2.82,1.78c4.87,3.08,9.7,4.44,14.3,4.66l-.52-1.75Zm.98,3.34c-3.88-.52-7.91-1.91-11.94-4.44l2.73,1.71c3.23,2.04,6.43,3.34,9.6,4.01l-.39-1.28Zm-6.61-22.68c-2.66,1.49-5.65,2.84-8.86,3.77-7.41,2.14-15.99,2.1-24.67-3.4l2.84,1.8c8.66,5.48,17.27,5.52,24.65,3.38,2.43-.69,4.72-1.62,6.87-2.71l-.82-2.84Zm1.62,5.57c-1.54,.67-3.16,1.28-4.85,1.78-7.39,2.14-15.99,2.1-24.65-3.4l2.82,1.8c8.66,5.48,17.27,5.52,24.65,3.38,.95-.28,1.88-.58,2.79-.93l-.76-2.62Z"/>
                    <path class="cls-4" d="M349.1,17.02c-3.12,1.95-6.8,3.77-10.85,4.94-7.39,2.12-15.97,2.08-24.65-3.4l2.82,1.78c8.69,5.5,17.26,5.55,24.67,3.4,3.21-.93,6.2-2.27,8.86-3.77l-.84-2.95Zm1.67,5.78c-2.14,1.08-4.44,2.01-6.87,2.71-7.39,2.14-15.99,2.1-24.65-3.38l2.82,1.78c8.66,5.5,17.26,5.55,24.65,3.4,1.69-.5,3.31-1.1,4.85-1.78l-.8-2.73Zm1.56,5.35c-.91,.35-1.84,.65-2.79,.93-7.39,2.14-15.99,2.1-24.65-3.38l2.82,1.78c8.69,5.5,17.27,5.52,24.65,3.4,.24-.06,.48-.15,.72-.22l-.74-2.51Zm1.43,4.9c-6.78,1.65-14.45,1.39-22.25-3.16l1.84,1.17c7.3,4.61,14.54,5.37,21.06,4.22l-.65-2.23Zm1.28,4.33c-5.94,.63-12.37-.43-18.87-4.55l2.82,1.8c5.68,3.6,11.31,4.85,16.59,4.68l-.54-1.93Zm1.06,3.68c-4.59-.22-9.42-1.58-14.3-4.66l2.82,1.8c4.03,2.53,8.06,3.92,11.94,4.44l-.46-1.58Z"/>
                  </g>
                  <path class="cls-1" d="M344.21,37.82c.56,.36,1.13,.73,1.69,1.13,.48,.34,.96,.66,1.43,.96l-36.46-23.08c-.48-.3-.96-.62-1.43-.96-.56-.4-1.13-.77-1.69-1.13,10.94,6.92,25.52,16.15,36.46,23.08Z"/>
                  <g>
                    <path class="cls-7" d="M324.88,25.7l-2.82-1.79c-.48-.3-.96-.62-1.43-.96-.56-.4-1.13-.77-1.69-1.13l2.82,1.79c.56,.36,1.13,.73,1.69,1.13,.48,.34,.96,.66,1.43,.96m-5.64-3.57l-2.82-1.79c-.48-.3-.96-.62-1.43-.96-.56-.4-1.13-.77-1.69-1.13l2.82,1.79c.56,.36,1.13,.73,1.69,1.13,.48,.34,.96,.66,1.43,.96m28.1,17.79l-2.72-1.72c-.48-.3-.96-.62-1.43-.96-.56-.4-1.13-.77-1.69-1.13l2.72,1.72c.56,.36,1.13,.73,1.69,1.13,.48,.34,.96,.66,1.43,.96m-5.54-3.5l-2.82-1.79c-.48-.3-.96-.62-1.43-.96-.56-.4-1.13-.77-1.69-1.13l2.82,1.79c.56,.36,1.13,.73,1.69,1.13,.48,.34,.96,.66,1.43,.96m-5.64-3.57l-2.82-1.79c-.48-.3-.96-.62-1.43-.96-.56-.4-1.13-.77-1.69-1.13l2.82,1.78c.56,.36,1.13,.73,1.69,1.13,.48,.34,.96,.66,1.43,.96m-5.64-3.57l-2.82-1.79c-.48-.3-.96-.62-1.43-.96-.56-.4-1.13-.77-1.69-1.13l2.82,1.79c.56,.36,1.13,.73,1.69,1.13,.48,.34,.96,.66,1.43,.96m-16.92-10.71l-2.72-1.72c-.48-.3-.96-.62-1.43-.96-.56-.4-1.13-.77-1.69-1.13l2.72,1.72c.56,.36,1.13,.73,1.69,1.13,.48,.34,.96,.66,1.43,.96"/>
                    <path class="cls-4" d="M344.62,38.19l-2.82-1.79c-.48-.3-.96-.62-1.43-.96-.56-.4-1.13-.77-1.69-1.13l2.82,1.79c.56,.36,1.13,.73,1.69,1.13,.48,.34,.96,.66,1.43,.96m-5.64-3.57l-2.82-1.79c-.48-.3-.96-.62-1.43-.96-.56-.4-1.13-.77-1.69-1.13l2.82,1.79c.56,.36,1.13,.73,1.69,1.13,.48,.34,.96,.66,1.43,.96m-5.64-3.57l-2.82-1.79c-.48-.3-.96-.62-1.43-.96-.56-.4-1.13-.77-1.69-1.13l2.82,1.79c.56,.36,1.13,.73,1.69,1.13,.48,.34,.96,.66,1.43,.96m-5.64-3.57l-2.82-1.79c-.48-.3-.96-.62-1.43-.96-.56-.4-1.13-.77-1.69-1.13l2.82,1.79c.56,.36,1.13,.73,1.69,1.13,.48,.34,.96,.66,1.43,.96m-5.64-3.57l-2.82-1.79c-.48-.3-.96-.62-1.43-.96-.56-.4-1.13-.77-1.69-1.13l2.82,1.79c.56,.36,1.13,.73,1.69,1.13,.48,.34,.96,.66,1.43,.96m-5.64-3.57l-2.82-1.79c-.48-.3-.96-.62-1.43-.96-.56-.4-1.13-.77-1.69-1.13l2.82,1.79c.56,.36,1.13,.73,1.69,1.13,.48,.34,.96,.66,1.43,.96"/>
                  </g>
                  <path class="cls-1" d="M307.75,14.75l36.46,23.08c-7.53-4.77-15.15-6.08-22.67-3.9-.32,.09-.64,.19-.96,.3-13.21,4.36-21.57,18.21-21.65,18.35l-36.46-23.08c.08-.14,8.44-13.99,21.65-18.35,.32-.11,.64-.2,.96-.3,7.52-2.18,15.13-.87,22.67,3.9Z"/>
                  <g>
                    <path class="cls-7" d="M321.75,23.61l-2.82-1.79c-1.94-1.23-3.89-2.23-5.85-3l2.82,1.79c1.95,.77,3.9,1.77,5.85,3m-5.64-3.57l-2.82-1.79c-1.94-1.23-3.89-2.23-5.85-3l2.82,1.79c1.95,.77,3.9,1.77,5.85,3m28.1,17.79l-2.72-1.72c-7.53-4.77-15.15-6.08-22.67-3.9-.32,.09-.64,.19-.96,.3-13.21,4.36-21.57,18.21-21.65,18.35l2.72,1.72c.08-.14,8.44-13.99,21.65-18.35,.32-.11,.64-.2,.96-.3,7.52-2.18,15.13-.87,22.67,3.9m-5.54-3.5l-2.82-1.79c-7.53-4.77-15.15-6.08-22.67-3.9-.32,.09-.64,.19-.96,.3-13.21,4.36-21.57,18.21-21.65,18.35l2.82,1.79c.08-.14,8.44-13.99,21.65-18.35,.32-.11,.64-.2,.96-.3,7.52-2.18,15.13-.87,22.67,3.9m-5.64-3.57l-2.82-1.78c-7.53-4.77-15.15-6.08-22.67-3.9-.32,.09-.64,.19-.96,.3-13.21,4.36-21.57,18.21-21.65,18.35l2.82,1.79c.08-.14,8.44-13.99,21.65-18.35,.32-.11,.64-.2,.96-.3,7.52-2.18,15.13-.87,22.67,3.9m-5.64-3.57l-2.82-1.79c-1.94-1.23-3.89-2.23-5.85-3l2.82,1.79c-5.61-2.21-11.24-2.52-16.82-.9-.32,.09-.64,.19-.96,.3-13.21,4.36-21.57,18.21-21.65,18.35,.08-.14,8.44-13.99,21.65-18.35,.32-.11,.64-.2,.96-.3,7.52-2.18,15.13-.87,22.67,3.9m-16.92-10.71l-2.72-1.72c-1.94-1.23-3.89-2.23-5.85-3l2.72,1.72c1.95,.77,3.9,1.77,5.85,3"/>
                    <path class="cls-4" d="M341.5,36.11l-2.82-1.79c-7.53-4.77-15.15-6.08-22.67-3.9-.32,.09-.64,.19-.96,.3-13.21,4.36-21.57,18.21-21.65,18.35l2.82,1.79c.08-.14,8.44-13.99,21.65-18.35,.32-.11,.64-.2,.96-.3,7.52-2.18,15.13-.87,22.67,3.9m-5.64-3.57l-2.82-1.79c-7.53-4.77-15.15-6.08-22.67-3.9-.32,.09-.64,.19-.96,.3-13.21,4.36-21.57,18.21-21.65,18.35l2.82,1.79c.08-.14,8.44-13.99,21.65-18.35,.32-.11,.64-.2,.96-.3,7.52-2.18,15.13-.87,22.67,3.9m-5.64-3.57l-2.82-1.79c-7.53-4.77-15.15-6.08-22.67-3.9-.32,.09-.64,.19-.96,.3-13.21,4.36-21.57,18.21-21.65,18.35l2.82,1.79c.08-.14,8.44-13.99,21.65-18.35,.32-.11,.64-.2,.96-.3,7.52-2.18,15.13-.87,22.67,3.9m-5.64-3.57l-2.82-1.79c-1.94-1.23-3.89-2.23-5.85-3l2.82,1.79c1.95,.77,3.9,1.77,5.85,3m-5.64-3.57l-2.82-1.79c-1.94-1.23-3.89-2.23-5.85-3l2.82,1.79c1.95,.77,3.9,1.77,5.85,3m-5.64-3.57l-2.82-1.79c-1.94-1.23-3.89-2.23-5.85-3l2.82,1.79c1.95,.77,3.9,1.77,5.85,3"/>
                    <path class="cls-6" d="M280.21,39.8l-.67-.66,.9,.32c.13-.2,.29-.43,.46-.68l.1,.86,.92,.29-.82,.19,.23,.69-.69-.63h-.68c.07-.09,.15-.23,.26-.4m3.77-5.01l-.47-.86,1.1,.12c.35-.4,.72-.81,1.11-1.23l-.42,1.3,1.12,.12-1.34,.67-.31,1.24-.49-.85-1.23,.61c.29-.36,.6-.74,.93-1.13m7.27-7.06l-.29-.87,1.28,.12c.54-.4,1.09-.79,1.66-1.16l-.87,1.24,1.29,.13-1.8,.65-.77,1.3-.31-.87-1.7,.7c.49-.42,.99-.83,1.52-1.24m10.24-5.64c-.12-.21-.24-.42-.37-.63,.4,.12,.79,.25,1.19,.37,.03,0,.07-.02,.1-.03,.37-.11,.75-.21,1.12-.3l-.5,.56,1.16,.39q-.58,.12-1.51,0c0,.14,0,.28,0,.42-.28,.11-.65,.26-.93,.37l-.15-.72-2.1,.31c.63-.26,1.28-.5,1.94-.72,.01,0,.03,0,.04-.01m6.98-1.28l-.4-.51,1.16,.49c.41,0,.81,0,1.22,.02l-.51,.29,1.16,.5-1.47-.3-.51,.35-.4-.51-1.47-.24c.41-.04,.81-.06,1.22-.08m6.92,.68l-.4-.4,1.16,.59c.41,.11,.81,.23,1.22,.36h-.51s1.16,.61,1.16,.61l-1.47-.58-.51,.07-.4-.41-1.47-.51c.41,.08,.82,.16,1.22,.26m-35.73,15.02l-.57-.78,1,.2c.25-.33,.51-.67,.8-1.03l-.17,1.14,1.02,.18-1.09,.49-.05,1.03-.58-.76-.97,.37c.18-.26,.39-.54,.61-.85m5.58-6.47l-.38-.89,1.19,.1c.45-.42,.91-.85,1.39-1.27l-.66,1.33,1.21,.1-1.58,.73-.55,1.33-.39-.89-1.47,.71c.39-.42,.81-.84,1.24-1.26m8.83-6.79l-.22-.81,1.35,.19c.62-.32,1.26-.62,1.91-.9l-1.07,1.02,1.36,.21-2,.46-.98,1.14-.23-.82-1.91,.57c.58-.37,1.17-.73,1.77-1.07m8.97-3.32l-.4-.56,1.16,.43c.41-.06,.81-.11,1.22-.15l-.51,.43,1.15,.44-1.47-.16-.5,.49-.4-.57-1.47-.1c.41-.09,.81-.18,1.22-.25m6.91-.29l-.4-.45,1.16,.54c.41,.05,.81,.12,1.22,.19l-.51,.15,1.16,.55-1.47-.44-.51,.21-.4-.46-1.47-.37c.41,.02,.81,.05,1.22,.09m-33.69,17.64l-.67-.65,.9,.31c.13-.2,.29-.43,.46-.68l.1,.87,.92,.29-.82,.19,.23,.7-.69-.63h-.68c.07-.09,.15-.23,.26-.4m3.77-5.01l-.47-.86,1.1,.12c.35-.4,.72-.81,1.11-1.23l-.42,1.3,1.12,.12-1.34,.67-.31,1.24-.49-.85-1.23,.61c.29-.37,.61-.74,.94-1.13m7.27-7.06l-.29-.87,1.27,.12c.54-.4,1.1-.79,1.67-1.16l-.87,1.24,1.29,.13-1.8,.65-.77,1.3-.31-.88-1.7,.7c.49-.42,1-.84,1.52-1.24m10.24-5.64c-.12-.21-.24-.42-.37-.62,.4,.12,.79,.25,1.19,.37,.03,0,.07-.02,.1-.03,.37-.11,.75-.21,1.12-.3l-.5,.56,1.16,.39q-.58,.12-1.51,0c0,.14,0,.28,0,.42-.28,.11-.65,.26-.93,.37l-.15-.72-2.1,.31c.63-.26,1.28-.5,1.94-.72,.01,0,.03,0,.04-.01m6.98-1.28l-.4-.51,1.15,.49c.41,0,.82,0,1.22,.02l-.51,.29,1.16,.5-1.47-.3-.5,.35-.4-.52-1.47-.24c.41-.04,.81-.06,1.22-.08m6.92,.68l-.4-.4,1.16,.59c.41,.11,.82,.23,1.22,.36h-.51s1.16,.61,1.16,.61l-1.47-.58-.51,.07-.4-.41-1.47-.51c.41,.08,.82,.16,1.22,.26m-35.73,15.02l-.57-.78,1,.2c.25-.33,.51-.67,.8-1.03l-.17,1.14,1.02,.18-1.09,.49-.05,1.03-.58-.76-.97,.37c.18-.26,.39-.54,.61-.85m5.58-6.47l-.38-.89,1.19,.1c.45-.42,.91-.85,1.39-1.27l-.66,1.33,1.21,.1-1.58,.73-.55,1.33-.39-.89-1.47,.72c.39-.42,.81-.84,1.23-1.26m8.83-6.79l-.22-.81,1.35,.19c.62-.32,1.26-.62,1.91-.9l-1.07,1.02,1.36,.21-2,.46-.98,1.14-.23-.82-1.91,.57c.58-.37,1.17-.73,1.77-1.07m8.97-3.32l-.4-.56,1.16,.43c.41-.06,.81-.11,1.22-.15l-.51,.43,1.15,.44-1.47-.16-.5,.49-.4-.57-1.47-.1c.41-.09,.81-.18,1.22-.25m6.91-.29l-.4-.45,1.16,.54c.41,.05,.81,.12,1.22,.19l-.51,.15,1.16,.55-1.47-.44-.51,.21-.4-.46-1.47-.37c.41,.02,.81,.05,1.22,.09m-33.69,17.64l-.67-.66,.9,.32c.13-.2,.29-.43,.46-.68l.1,.86,.92,.29-.82,.19,.23,.7-.69-.63h-.68c.07-.09,.15-.23,.26-.4m3.77-5.01l-.47-.86,1.1,.12c.35-.4,.72-.81,1.11-1.23l-.42,1.3,1.12,.12-1.34,.67-.31,1.24-.49-.85-1.23,.61c.29-.36,.6-.74,.93-1.13m7.27-7.06l-.29-.87,1.28,.12c.54-.4,1.1-.79,1.67-1.16l-.87,1.24,1.29,.13-1.8,.65-.77,1.3-.31-.88-1.7,.7c.49-.42,.99-.83,1.52-1.24m10.24-5.64c-.12-.21-.24-.42-.37-.63,.4,.12,.79,.25,1.19,.37,.03,0,.07-.02,.1-.03,.37-.11,.75-.21,1.12-.3l-.5,.56,1.16,.39q-.58,.12-1.51,0c0,.14,0,.28,0,.42-.28,.11-.65,.26-.93,.37l-.15-.72-2.1,.3c.63-.26,1.28-.5,1.94-.72,.01,0,.03,0,.04-.01m6.98-1.28l-.4-.51,1.16,.49c.41,0,.81,0,1.22,.02l-.51,.29,1.16,.5-1.47-.3-.5,.35-.4-.52-1.47-.24c.41-.04,.81-.06,1.22-.08m6.92,.69l-.4-.4,1.16,.59c.41,.11,.82,.23,1.22,.36h-.51s1.16,.61,1.16,.61l-1.47-.58-.51,.07-.4-.41-1.47-.51c.41,.08,.82,.16,1.22,.26m-35.73,15.03l-.57-.78,1,.2c.25-.33,.51-.67,.8-1.03l-.17,1.15,1.02,.18-1.09,.49-.05,1.03-.58-.76-.97,.37c.18-.26,.39-.54,.61-.85m5.58-6.47l-.38-.89,1.19,.1c.45-.42,.91-.85,1.39-1.27l-.66,1.33,1.21,.1-1.58,.73-.55,1.33-.39-.89-1.47,.71c.39-.42,.81-.84,1.24-1.26m8.83-6.79l-.21-.8,1.35,.19c.62-.32,1.26-.62,1.91-.9l-1.07,1.02,1.36,.21-2,.46-.98,1.14-.23-.82-1.91,.57c.58-.37,1.17-.73,1.77-1.07m8.97-3.32l-.4-.56,1.16,.43c.41-.06,.81-.11,1.22-.15l-.5,.43,1.15,.44-1.47-.16-.5,.49-.4-.57-1.47-.1c.41-.09,.81-.18,1.22-.25m6.91-.29l-.4-.45,1.16,.54c.41,.05,.81,.12,1.22,.19l-.51,.15,1.16,.55-1.47-.44-.51,.21-.4-.46-1.47-.37c.41,.02,.81,.05,1.22,.09m-33.69,17.64l-.67-.66,.9,.32c.13-.2,.29-.43,.46-.68l.1,.86,.92,.29-.82,.19,.23,.7-.69-.63h-.68c.07-.09,.15-.23,.26-.4m3.77-5.01l-.47-.86,1.1,.12c.35-.4,.72-.81,1.11-1.23l-.42,1.3,1.12,.12-1.34,.67-.31,1.24-.49-.85-1.23,.61c.29-.36,.61-.74,.94-1.13m7.27-7.06l-.29-.87,1.28,.12c.54-.4,1.09-.79,1.66-1.16l-.87,1.24,1.29,.13-1.8,.65-.77,1.3-.31-.88-1.7,.7c.49-.42,1-.83,1.52-1.24m10.24-5.64c-.12-.21-.24-.42-.37-.62,.4,.12,.79,.25,1.19,.37,.03,0,.07-.02,.1-.03,.37-.11,.75-.21,1.12-.3l-.5,.56,1.16,.39q-.58,.12-1.51,0c0,.14,0,.28,0,.42-.28,.11-.65,.26-.93,.37l-.16-.72-2.1,.31c.63-.26,1.28-.5,1.94-.72,.01,0,.03,0,.04-.01m6.98-1.28l-.4-.51,1.16,.49c.41,0,.81,0,1.22,.02l-.51,.29,1.16,.5-1.47-.3-.5,.35-.4-.52-1.47-.24c.41-.04,.81-.06,1.22-.08m6.92,.68l-.4-.4,1.16,.59c.41,.11,.82,.23,1.22,.36h-.51s1.16,.61,1.16,.61l-1.47-.58-.51,.07-.4-.41-1.47-.51c.41,.08,.82,.16,1.22,.26m-35.74,15.02l-.57-.78,1,.2c.25-.33,.51-.67,.8-1.03l-.17,1.15,1.02,.18-1.09,.49-.05,1.03-.59-.76-.97,.37c.18-.26,.39-.55,.61-.85m5.58-6.47l-.38-.89,1.19,.1c.45-.42,.91-.85,1.4-1.27l-.66,1.33,1.21,.1-1.58,.73-.55,1.33-.39-.89-1.47,.71c.39-.42,.81-.84,1.24-1.26m8.83-6.79l-.21-.8,1.35,.19c.62-.32,1.26-.62,1.91-.9l-1.07,1.03,1.37,.21-2,.46-.98,1.14-.23-.82-1.91,.57c.58-.37,1.17-.73,1.77-1.07m8.97-3.32l-.4-.56,1.15,.43c.41-.06,.81-.11,1.22-.15l-.5,.43,1.16,.44-1.47-.16-.5,.49-.4-.57-1.47-.1c.41-.09,.81-.18,1.22-.25m6.91-.29l-.4-.45,1.15,.54c.41,.05,.81,.11,1.22,.19l-.51,.15,1.16,.55-1.47-.44-.51,.21-.4-.46-1.47-.37c.41,.02,.81,.05,1.22,.09m-33.69,17.64l-.67-.66,.9,.32c.13-.2,.29-.43,.46-.68l.1,.86,.92,.29-.82,.19,.23,.7-.69-.63h-.68c.07-.09,.15-.23,.26-.4m3.77-5.01l-.47-.86,1.1,.12c.35-.4,.72-.81,1.11-1.23l-.42,1.3,1.12,.12-1.34,.67-.31,1.24-.49-.85-1.23,.61c.29-.36,.6-.74,.93-1.13m7.27-7.06l-.29-.87,1.28,.12c.54-.4,1.09-.79,1.66-1.16l-.87,1.24,1.29,.13-1.8,.65-.77,1.3-.31-.87-1.7,.7c.49-.42,.99-.84,1.52-1.24m10.24-5.64c-.12-.21-.24-.42-.37-.63,.4,.12,.79,.25,1.19,.37,.03,0,.07-.02,.1-.03,.37-.11,.75-.21,1.12-.3l-.5,.56,1.16,.39q-.58,.12-1.51,0c0,.14,0,.28,0,.42-.28,.11-.65,.26-.93,.37l-.15-.72-2.1,.31c.63-.26,1.28-.5,1.94-.72,.01,0,.03,0,.04-.01m6.98-1.28l-.4-.51,1.16,.49c.41,0,.81,0,1.22,.02l-.51,.29,1.16,.5-1.47-.3-.51,.35-.4-.52-1.47-.23c.41-.04,.81-.06,1.22-.08m6.92,.68l-.4-.4,1.16,.59c.41,.11,.82,.23,1.22,.36h-.51s1.16,.61,1.16,.61l-1.47-.58-.51,.07-.4-.41-1.47-.51c.41,.08,.81,.16,1.22,.26m5.04,1.97l-2.72-1.72c-5.61-2.21-11.24-2.52-16.82-.9-.32,.09-.64,.19-.96,.3-13.21,4.36-21.57,18.21-21.65,18.35l19.64,12.43c.08-.14,8.44-13.99,21.65-18.35,.32-.11,.64-.2,.96-.3,5.58-1.62,11.21-1.31,16.82,.9l-2.82-1.79-2.82-1.79-2.82-1.79-2.82-1.79-2.82-1.79-2.82-1.79"/>
                    <path class="cls-4" d="M263.74,29.14l.67,.66c-.11,.17-.2,.3-.26,.41h.68s.69,.62,.69,.62l-.23-.7,.82-.19-.92-.29-.1-.86c-.18,.25-.33,.48-.46,.68l-.9-.32"/>
                    <path class="cls-4" d="M267.69,31.64l.67,.66c-.11,.17-.2,.3-.26,.41h.68s.69,.62,.69,.62l-.23-.7,.82-.19-.92-.29-.1-.86c-.18,.25-.33,.48-.46,.68l-.9-.32"/>
                    <path class="cls-4" d="M271.63,34.14l.67,.66c-.11,.17-.2,.3-.26,.41h.68s.69,.62,.69,.62l-.23-.7,.82-.19-.92-.29-.1-.86c-.17,.25-.33,.48-.46,.68l-.9-.32"/>
                    <path class="cls-4" d="M275.58,36.64l.67,.65c-.11,.17-.2,.3-.26,.41h.68s.69,.62,.69,.62l-.23-.7,.82-.19-.92-.29-.1-.87c-.17,.25-.33,.48-.46,.68l-.9-.31"/>
                    <path class="cls-4" d="M279.53,39.14l.67,.66c-.11,.17-.2,.3-.26,.41h.68s.69,.62,.69,.62l-.23-.69,.82-.19-.92-.29-.1-.86c-.17,.25-.33,.48-.46,.68l-.9-.32"/>
                    <path class="cls-4" d="M267.23,28.24l.57,.78c-.22,.3-.43,.59-.61,.85l.97-.37,.59,.76,.05-1.03,1.09-.49-1.02-.18,.17-1.15c-.29,.36-.55,.7-.8,1.03l-1-.2"/>
                    <path class="cls-4" d="M271.18,30.74l.57,.78c-.22,.3-.43,.59-.61,.85l.97-.37,.58,.76,.05-1.03,1.09-.49-1.02-.18,.17-1.15c-.29,.36-.55,.7-.8,1.03l-1-.2"/>
                    <path class="cls-4" d="M275.13,33.24l.57,.78c-.22,.3-.43,.59-.61,.85l.97-.37,.58,.76,.05-1.03,1.09-.49-1.02-.18,.17-1.14c-.29,.36-.55,.7-.8,1.03l-1-.2"/>
                    <path class="cls-4" d="M279.08,35.74l.57,.78c-.22,.3-.43,.59-.61,.85l.97-.37,.58,.76,.05-1.03,1.09-.49-1.02-.18,.17-1.14c-.29,.36-.55,.7-.8,1.03l-1-.2"/>
                    <path class="cls-4" d="M267.71,23.94l.47,.86c-.33,.39-.64,.77-.93,1.13l1.23-.61,.49,.85,.31-1.24,1.34-.67-1.12-.12,.42-1.3c-.39,.42-.76,.83-1.11,1.23l-1.1-.12"/>
                    <path class="cls-4" d="M271.66,26.43l.47,.86c-.33,.39-.64,.77-.94,1.13l1.23-.61,.49,.85,.31-1.24,1.34-.67-1.12-.12,.42-1.3c-.39,.42-.76,.83-1.11,1.23l-1.1-.12"/>
                    <path class="cls-4" d="M275.61,28.93l.47,.86c-.33,.39-.64,.77-.93,1.13l1.23-.61,.49,.85,.31-1.24,1.34-.67-1.12-.12,.42-1.3c-.39,.42-.76,.83-1.11,1.23l-1.1-.12"/>
                    <path class="cls-4" d="M279.56,31.43l.47,.86c-.33,.39-.64,.77-.94,1.13l1.23-.61,.49,.85,.31-1.24,1.34-.67-1.12-.12,.42-1.3c-.39,.42-.76,.83-1.11,1.23l-1.1-.12"/>
                    <path class="cls-4" d="M283.51,33.93l.47,.86c-.33,.39-.64,.77-.93,1.13l1.23-.61,.49,.85,.31-1.24,1.34-.67-1.12-.12,.42-1.3c-.39,.42-.76,.82-1.11,1.23l-1.1-.12"/>
                    <path class="cls-4" d="M273.01,21.67l.38,.89c-.43,.42-.84,.85-1.24,1.26l1.47-.71,.39,.89,.55-1.33,1.58-.73-1.21-.1,.66-1.33c-.48,.42-.95,.84-1.4,1.27l-1.19-.1"/>
                    <path class="cls-4" d="M276.96,24.16l.38,.89c-.43,.42-.84,.85-1.24,1.26l1.47-.71,.39,.89,.55-1.33,1.58-.73-1.21-.1,.66-1.33c-.48,.42-.95,.84-1.39,1.27l-1.19-.1"/>
                    <path class="cls-4" d="M280.91,26.66l.38,.89c-.43,.42-.84,.85-1.23,1.26l1.47-.72,.39,.89,.55-1.33,1.58-.73-1.21-.1,.66-1.33c-.48,.42-.95,.84-1.39,1.27l-1.19-.1"/>
                    <path class="cls-4" d="M284.85,29.16l.38,.89c-.43,.42-.84,.85-1.24,1.26l1.47-.71,.39,.89,.55-1.33,1.58-.73-1.21-.1,.66-1.33c-.48,.42-.95,.84-1.39,1.27l-1.19-.1"/>
                    <path class="cls-4" d="M275.16,16.87l.29,.87c-.52,.41-1.03,.82-1.52,1.24l1.7-.7,.31,.87,.77-1.3,1.8-.65-1.29-.13,.87-1.24c-.57,.38-1.12,.76-1.66,1.16l-1.28-.12"/>
                    <path class="cls-4" d="M279.1,19.36l.29,.87c-.52,.41-1.03,.82-1.52,1.24l1.7-.7,.31,.88,.77-1.3,1.8-.65-1.29-.13,.87-1.24c-.57,.38-1.12,.76-1.66,1.16l-1.28-.12"/>
                    <path class="cls-4" d="M283.05,21.86l.29,.87c-.52,.41-1.03,.82-1.52,1.24l1.7-.7,.31,.88,.77-1.3,1.8-.65-1.29-.13,.87-1.24c-.57,.38-1.12,.76-1.67,1.16l-1.28-.12"/>
                    <path class="cls-4" d="M287,24.36l.29,.87c-.52,.41-1.03,.82-1.52,1.24l1.7-.7,.31,.88,.77-1.3,1.8-.65-1.29-.13,.87-1.24c-.57,.38-1.13,.76-1.67,1.16l-1.27-.12"/>
                    <path class="cls-4" d="M290.95,26.86l.29,.87c-.52,.41-1.03,.82-1.52,1.24l1.7-.7,.31,.87,.77-1.3,1.8-.65-1.29-.13,.87-1.24c-.57,.38-1.12,.76-1.66,1.16l-1.28-.12"/>
                    <path class="cls-4" d="M282,14.96l.21,.8c-.61,.34-1.2,.7-1.77,1.07l1.91-.57,.23,.82,.98-1.14,2-.46-1.37-.21,1.07-1.03c-.65,.28-1.29,.58-1.91,.9l-1.35-.19"/>
                    <path class="cls-4" d="M285.95,17.46l.21,.8c-.6,.34-1.2,.7-1.77,1.07l1.91-.57,.23,.82,.98-1.14,2-.46-1.36-.21,1.07-1.02c-.65,.28-1.29,.58-1.91,.9l-1.35-.19"/>
                    <path class="cls-4" d="M289.89,19.96l.22,.81c-.6,.34-1.2,.7-1.77,1.07l1.91-.57,.23,.82,.98-1.14,2-.46-1.36-.21,1.07-1.02c-.65,.28-1.29,.58-1.91,.9l-1.35-.19"/>
                    <path class="cls-4" d="M293.84,22.46l.22,.81c-.6,.34-1.2,.7-1.77,1.07l1.91-.57,.23,.82,.98-1.14,2-.46-1.36-.21,1.07-1.02c-.65,.28-1.29,.58-1.91,.9l-1.35-.19"/>
                    <path class="cls-4" d="M285.32,11.47c.12,.21,.25,.42,.37,.63-.01,0-.03,0-.04,.01-.66,.22-1.31,.46-1.94,.72l2.1-.31,.15,.72c.28-.11,.65-.26,.93-.37,0-.14,0-.27,0-.41q.97,.14,1.51,0l-1.16-.39,.5-.56c-.37,.09-.75,.19-1.12,.3-.03,0-.07,.02-.1,.03-.4-.12-.79-.25-1.19-.37"/>
                    <path class="cls-4" d="M289.27,13.97c.12,.21,.25,.42,.37,.62-.01,0-.03,0-.04,.01-.66,.22-1.31,.46-1.94,.72l2.1-.31,.16,.72c.28-.11,.65-.26,.93-.37,0-.14,0-.27,0-.41q.97,.14,1.51,0l-1.16-.39,.5-.56c-.37,.09-.75,.19-1.12,.3-.03,0-.07,.02-.1,.03-.4-.12-.79-.25-1.19-.37"/>
                    <path class="cls-4" d="M293.21,16.47c.12,.21,.25,.42,.37,.63-.01,0-.03,0-.04,.01-.66,.22-1.31,.46-1.94,.72l2.1-.3,.15,.72c.28-.11,.65-.26,.93-.37,0-.14,0-.27,0-.41q.97,.14,1.51,0l-1.16-.39,.5-.56c-.37,.09-.75,.19-1.12,.3-.03,0-.07,.02-.1,.03-.4-.12-.79-.25-1.19-.37"/>
                    <path class="cls-4" d="M297.17,18.97c.12,.21,.25,.42,.37,.62-.01,0-.03,0-.04,.01-.66,.22-1.31,.46-1.94,.72l2.1-.31,.15,.72c.28-.11,.65-.26,.93-.37,0-.14,0-.27,0-.41q.97,.14,1.51,0l-1.16-.39,.5-.56c-.37,.09-.75,.19-1.12,.3-.03,0-.07,.02-.1,.03-.4-.12-.79-.25-1.19-.37"/>
                    <path class="cls-4" d="M301.11,21.47c.12,.21,.25,.42,.37,.63-.01,0-.03,0-.04,.01-.66,.22-1.31,.46-1.94,.72l2.1-.31,.15,.72c.28-.11,.65-.26,.93-.37,0-.14,0-.27,0-.41q.97,.14,1.51,0l-1.16-.39,.5-.56c-.37,.09-.75,.19-1.12,.3-.03,0-.07,.02-.1,.03-.4-.12-.79-.25-1.19-.37"/>
                    <path class="cls-4" d="M290.78,11.89l.4,.56c-.41,.07-.81,.16-1.22,.25l1.47,.1,.4,.57,.5-.49,1.47,.16-1.16-.44,.5-.43c-.41,.04-.81,.09-1.22,.15l-1.15-.43"/>
                    <path class="cls-4" d="M294.73,14.39l.4,.56c-.41,.07-.81,.16-1.22,.25l1.47,.1,.4,.57,.5-.49,1.47,.16-1.15-.44,.5-.43c-.41,.04-.81,.09-1.22,.15l-1.16-.43"/>
                    <path class="cls-4" d="M298.68,16.89l.4,.56c-.41,.07-.81,.16-1.22,.25l1.47,.1,.4,.57,.5-.49,1.47,.16-1.15-.44,.51-.43c-.41,.04-.81,.09-1.22,.15l-1.16-.43"/>
                    <path class="cls-4" d="M302.63,19.38l.4,.56c-.41,.07-.81,.16-1.22,.25l1.47,.1,.4,.57,.5-.49,1.47,.16-1.15-.44,.51-.43c-.41,.04-.81,.09-1.22,.15l-1.16-.43"/>
                    <path class="cls-4" d="M292.26,10.3l.4,.51c-.41,.02-.81,.04-1.22,.08l1.47,.23,.4,.52,.51-.35,1.47,.3-1.16-.5,.51-.29c-.41-.02-.81-.02-1.22-.02l-1.16-.49"/>
                    <path class="cls-4" d="M296.21,12.8l.4,.51c-.41,.02-.81,.04-1.22,.08l1.47,.24,.4,.52,.5-.35,1.47,.3-1.16-.5,.51-.29c-.41-.02-.81-.02-1.22-.02l-1.16-.49"/>
                    <path class="cls-4" d="M300.16,15.3l.4,.51c-.41,.02-.81,.04-1.22,.08l1.47,.24,.4,.52,.5-.35,1.47,.3-1.16-.5,.51-.29c-.41-.02-.81-.02-1.22-.02l-1.16-.49"/>
                    <path class="cls-4" d="M304.11,17.8l.4,.51c-.41,.02-.81,.04-1.22,.08l1.47,.24,.4,.52,.5-.35,1.47,.3-1.16-.5,.51-.29c-.41-.02-.82-.02-1.22-.02l-1.15-.49"/>
                    <path class="cls-4" d="M308.06,20.3l.4,.51c-.41,.02-.81,.04-1.22,.08l1.47,.24,.4,.51,.51-.35,1.47,.3-1.16-.5,.51-.29c-.41-.02-.81-.02-1.22-.02l-1.16-.49"/>
                    <path class="cls-4" d="M297.7,11.71l.4,.45c-.41-.04-.81-.07-1.22-.09l1.47,.37,.4,.46,.51-.21,1.47,.44-1.16-.55,.51-.15c-.41-.07-.81-.14-1.22-.19l-1.15-.54"/>
                    <path class="cls-4" d="M301.65,14.21l.4,.45c-.41-.04-.81-.07-1.22-.09l1.47,.37,.4,.46,.51-.21,1.47,.44-1.16-.55,.51-.15c-.41-.07-.81-.14-1.22-.19l-1.16-.54"/>
                    <path class="cls-4" d="M305.59,16.71l.4,.45c-.41-.04-.81-.07-1.22-.09l1.47,.37,.4,.46,.51-.21,1.47,.44-1.16-.55,.51-.15c-.41-.07-.81-.14-1.22-.19l-1.16-.54"/>
                    <path class="cls-4" d="M309.54,19.21l.4,.45c-.41-.04-.81-.07-1.22-.09l1.47,.37,.4,.46,.51-.21,1.47,.44-1.16-.55,.51-.15c-.41-.07-.81-.14-1.22-.19l-1.16-.54"/>
                    <path class="cls-4" d="M299.18,11.09l.4,.4c-.41-.1-.82-.18-1.22-.26l1.47,.51,.4,.41,.51-.07,1.47,.58-1.16-.6h.51c-.41-.14-.82-.26-1.22-.37l-1.16-.59"/>
                    <path class="cls-4" d="M303.13,13.59l.4,.4c-.41-.1-.82-.18-1.22-.26l1.47,.51,.4,.41,.51-.07,1.47,.58-1.16-.6h.51c-.41-.14-.82-.26-1.22-.37l-1.16-.59"/>
                    <path class="cls-4" d="M307.08,16.09l.4,.4c-.41-.1-.82-.18-1.22-.26l1.47,.51,.4,.41,.51-.07,1.47,.58-1.16-.6h.51c-.41-.14-.82-.26-1.22-.37l-1.16-.59"/>
                    <path class="cls-4" d="M311.03,18.59l.4,.4c-.41-.1-.82-.19-1.22-.26l1.47,.51,.4,.41,.51-.07,1.47,.58-1.16-.6h.51c-.41-.14-.82-.26-1.22-.37l-1.16-.59"/>
                    <path class="cls-4" d="M314.98,21.09l.4,.4c-.41-.1-.82-.18-1.22-.26l1.47,.51,.4,.41,.51-.07,1.47,.58-1.16-.6h.51c-.41-.14-.81-.26-1.22-.37l-1.16-.59"/>
                  </g>
                </g>
                <polygon class="cls-3" points="258.02 25.31 326.73 66.07 322.77 71.62 253.91 28.74 258.02 25.31"/>
              </g>
              <path class="cls-13" d="M215.89,185.18l87.41-54.92,5.9-44.81-13.08-7.43,.91-23.05,5.34,3.04,18.52-8.33,18.03,20.35-6.36,11.2,11.02,59.37c-2.05,17.73-5.31,29.55-19.77,38.11l-63.98,44.81-43.94-38.33Z"/>
              <polygon class="cls-3" points="325.15 72.34 352.86 90.07 356.07 84.06 331.23 69.89 325.15 72.34"/>
              <path class="cls-12" d="M265.49,154.02s15.4,35.44,44.62,34.28c0,0-33.67,26.45-34.53,24.18-.86-2.27-24.46-49.44-24.46-49.44l14.36-9.02Z"/>
              <path class="cls-5" d="M265.49,154.02c3.15,18.71,9.26,49.2,43.63,54.74,0,0-45.96,46.28-86.92,26.59-32.27-15.51-10.46-56.51-10.46-56.51l53.75-24.83Z"/>
              <path class="cls-12" d="M303.3,130.26l-1.4,9.46s-9.31-2.03,1.4-9.46Z"/>
            </g>
          </g>
        </g>
      </g>
    </g>
  </g>
</svg>